<svg width="107" height="95" viewBox="0 0 107 95" fill="none" xmlns="http://www.w3.org/2000/svg">
<path d="M42.8818 89.9352L48 95H4.04211L9.16027 89.9352C11.0583 88.0569 12.1263 85.4986 12.1263 82.8283V17.5C12.1263 12.7 4.04211 7.16667 0 5L39.9158 1.24533e-07V82.8272C39.9158 85.4975 40.9838 88.0569 42.8818 89.9352Z" fill="#111111"/>
<path d="M73.7094 83.8121L66.9271 90.6518V90.6518C65.0512 92.5436 67.2965 95 69.9607 95H103.176C105.84 95 108.086 92.5436 106.21 90.6518V90.6518L98.4188 82.795V25.0656C98.4188 19.2639 96.9674 13.3425 92.8558 9.24936C77.7834 -5.75542 57.9327 0.65847 49 6.51385C63.5049 4.1326 70.3238 10.3558 72.7584 15.432C73.6057 17.1986 73.7094 19.197 73.7094 21.1564V83.8121Z" fill="#111111"/>
</svg>
