<svg width="912" height="506" viewBox="0 0 912 506" fill="none" xmlns="http://www.w3.org/2000/svg">
<path d="M609.822 487.179L606.942 487.588C605.57 487.861 604.61 487.861 604.062 487.588C603.787 487.588 602.553 487.588 600.359 487.588C600.084 487.588 599.262 487.724 597.89 487.997C596.519 488.27 595.01 488.543 593.364 488.815C591.718 489.088 589.936 489.088 588.016 488.815C586.095 488.815 584.587 488.543 583.49 487.997C582.118 487.997 581.158 487.861 580.61 487.588C580.061 487.315 579.101 487.179 577.729 487.179C576.358 486.088 575.535 484.451 575.261 482.269C575.261 480.087 575.261 478.314 575.261 476.95V466.721L571.969 471.222L564.563 478.177C561.82 480.087 559.489 481.587 557.569 482.678C555.923 484.042 553.866 485.406 551.397 486.77C547.283 489.225 542.757 490.861 537.82 491.679C533.157 492.498 528.768 492.907 524.654 492.907C520.539 492.907 516.15 492.089 511.487 490.452C507.099 488.815 503.121 487.315 499.556 485.951C498.458 485.678 497.361 485.133 496.264 484.315C495.441 483.769 494.618 483.224 493.795 482.678C492.15 481.314 490.23 479.95 488.035 478.586C486.115 477.223 484.469 475.859 483.098 474.495C482.275 473.949 481.452 473.404 480.629 472.858C480.081 472.04 479.258 471.358 478.161 470.812C476.789 469.994 475.555 468.63 474.458 466.721C473.086 463.72 471.303 460.856 469.109 458.129C467.189 455.128 465.543 451.718 464.172 447.9C463.349 444.899 462.252 442.035 460.88 439.307C459.509 436.58 458.823 433.988 458.823 431.533C458.823 430.169 458.686 427.851 458.411 424.578C458.137 421.304 458 418.986 458 417.622C458 415.167 458 413.258 458 411.894C458.274 410.53 458.411 408.484 458.411 405.756C458.411 404.392 458.549 403.029 458.823 401.665C459.371 400.028 459.92 397.982 460.469 395.527C461.017 392.527 461.429 389.39 461.703 386.117C461.977 382.571 462.389 379.707 462.937 377.524C464.857 373.978 466.092 371.796 466.64 370.978C467.463 370.16 468.149 368.659 468.697 366.477C469.246 364.84 469.932 362.795 470.755 360.34C471.852 357.612 473.36 355.566 475.281 354.202C476.103 353.657 477.338 352.702 478.984 351.338C480.629 349.974 482.275 348.474 483.921 346.838C485.841 345.201 487.487 343.837 488.858 342.746C490.23 341.382 491.19 340.7 491.738 340.7L499.144 337.427C501.339 336.609 503.807 336.063 506.55 335.79C509.293 335.245 511.899 334.972 514.367 334.972L527.122 334.563C528.494 334.563 530.002 334.563 531.648 334.563C533.568 334.563 534.802 334.699 535.351 334.972C536.722 334.972 538.094 335.381 539.465 336.199C540.837 337.018 542.208 337.427 543.58 337.427C544.951 337.427 546.597 337.972 548.517 339.064C550.712 339.882 552.494 340.973 553.866 342.337C556.609 343.428 558.666 344.792 560.038 346.428C561.683 347.792 563.192 349.156 564.563 350.52C565.935 351.884 567.169 353.248 568.266 354.612C569.638 355.703 571.009 356.93 572.381 358.294C572.381 359.112 572.929 359.794 574.026 360.34C574.575 360.613 574.987 360.885 575.261 361.158C575.809 360.613 576.084 359.521 576.084 357.885C576.358 356.248 576.907 354.748 577.729 353.384C578.004 349.565 578.141 346.156 578.141 343.155C578.415 339.882 578.69 337.7 578.964 336.609C578.69 335.517 578.827 334.017 579.375 332.108C579.924 329.926 580.884 329.107 582.255 329.653C582.804 329.38 584.038 329.38 585.958 329.653C587.878 329.926 590.073 330.335 592.541 330.88C595.01 331.153 597.479 331.426 599.947 331.699C602.69 331.971 605.022 332.108 606.942 332.108C607.216 332.108 607.353 332.79 607.353 334.154C607.353 335.517 607.216 336.609 606.942 337.427L609.41 376.706V420.895C609.41 421.713 609.273 422.532 608.999 423.35C608.999 424.168 608.999 424.987 608.999 425.805C609.273 428.26 609.41 430.851 609.41 433.579C609.41 436.034 609.41 438.625 609.41 441.353C609.685 443.262 609.685 445.308 609.41 447.49C609.41 449.4 609.41 451.446 609.41 453.628C609.41 455.264 609.41 457.583 609.41 460.583C609.685 463.311 609.822 466.175 609.822 469.176C609.822 472.176 609.822 475.04 609.822 477.768C609.822 480.769 609.822 483.224 609.822 485.133V487.179ZM556.746 424.168C556.746 422.532 557.02 418.986 557.569 413.53C558.117 407.802 556.883 400.846 553.866 392.663C553.043 390.481 551.809 388.162 550.163 385.708C548.517 383.253 545.911 381.343 542.346 379.979C540.425 379.434 538.643 378.888 536.997 378.343C535.351 377.524 533.568 377.252 531.648 377.524C529.728 378.07 527.259 379.297 524.242 381.207C521.499 383.116 519.168 385.435 517.248 388.163C515.876 389.526 515.053 391.027 514.779 392.663C514.505 394.3 514.23 396.209 513.956 398.391C513.133 401.937 512.447 404.665 511.899 406.575C511.625 408.484 511.487 410.939 511.487 413.939C511.487 419.395 512.996 424.168 516.013 428.26C519.305 432.352 521.362 435.079 522.185 436.443C523.008 437.261 523.693 437.807 524.242 438.08C525.065 438.08 526.162 438.762 527.534 440.126C530.277 441.489 532.882 441.762 535.351 440.944C537.82 439.853 540.563 438.625 543.58 437.261H546.048C548.517 435.898 550.574 434.534 552.22 433.17C553.866 431.806 555.375 429.76 556.746 427.033V424.168Z" fill="#4642FF"/>
<path d="M644.1 424.987C644.1 423.077 644.1 420.213 644.1 416.394C644.374 412.576 644.374 408.893 644.1 405.347C644.374 402.892 644.512 400.437 644.512 397.982C644.512 395.527 644.512 392.936 644.512 390.208L643.277 357.066V338.654C646.295 338.654 649.449 338.654 652.74 338.654C656.032 338.382 659.735 338.518 663.849 339.064C664.946 339.336 666.044 339.473 667.141 339.473H672.901C674.821 340.018 675.781 340.291 675.781 340.291C675.781 340.018 676.193 340.155 677.015 340.7C677.015 342.064 676.878 343.155 676.604 343.973C676.33 344.519 676.193 345.474 676.193 346.838V359.931C677.29 358.567 677.976 357.476 678.25 356.657C678.798 355.566 679.758 354.339 681.13 352.975L683.599 352.157C687.164 348.611 691.553 346.292 696.765 345.201C701.976 344.11 707.188 343.837 712.399 344.383C713.497 344.383 715.28 344.928 717.748 346.019C720.217 346.838 722.685 347.929 725.154 349.292C727.074 349.565 728.72 350.111 730.091 350.929L731.326 352.157C734.069 354.612 736.674 356.794 739.143 358.703C741.612 360.34 743.395 362.522 744.492 365.25C747.235 369.068 749.429 373.16 751.075 377.524C752.721 381.889 754.229 386.662 755.601 391.845C755.601 393.209 755.464 394.436 755.189 395.527C754.915 396.618 754.092 397.164 752.721 397.164C748.606 398.528 744.766 399.21 741.2 399.21C737.909 398.937 733.383 399.073 727.623 399.619H723.097C722.548 399.346 722.137 398.937 721.863 398.391C721.863 397.846 721.863 397.437 721.863 397.164C721.588 395.527 721.177 394.163 720.628 393.072C720.354 391.709 720.217 390.617 720.217 389.799C720.217 389.254 720.08 388.572 719.805 387.753C719.531 386.935 719.257 386.253 718.982 385.708C718.434 384.889 718.022 384.207 717.748 383.662C712.537 378.479 707.462 375.888 702.525 375.888C701.976 375.888 701.153 375.888 700.056 375.888C699.233 375.888 698.41 376.161 697.588 376.706C696.216 377.252 694.159 378.206 691.416 379.57C688.947 380.661 687.302 381.616 686.479 382.434C685.107 383.798 683.599 385.298 681.953 386.935C680.581 388.299 679.484 389.936 678.661 391.845C678.387 392.936 678.113 394.845 677.838 397.573C677.838 400.028 677.838 401.528 677.838 402.074C677.29 404.529 676.741 407.802 676.193 411.894C675.644 415.985 675.37 419.531 675.37 422.532C675.37 424.441 675.095 426.896 674.547 429.897C674.273 432.897 674.135 435.625 674.135 438.08C674.135 439.989 673.998 441.762 673.724 443.399C673.724 445.035 673.724 446.672 673.724 448.309V463.857C673.724 465.493 673.587 467.266 673.312 469.176C673.312 471.085 673.312 472.995 673.312 474.904V483.905C659.598 486.906 650.135 486.906 644.923 483.905C644.374 481.996 643.963 479.678 643.689 476.95C643.414 473.949 643.414 472.176 643.689 471.631C644.237 466.721 644.374 461.811 644.1 456.901C643.826 451.991 643.689 446.945 643.689 441.762C643.414 439.034 643.414 436.17 643.689 433.17C643.963 430.169 644.1 427.442 644.1 424.987Z" fill="#4642FF"/>
<path d="M862.627 467.13C862.627 470.13 862.49 473.267 862.216 476.541C862.216 479.814 862.353 482.951 862.627 485.951C862.627 487.588 862.627 489.906 862.627 492.907C862.627 496.18 862.49 498.635 862.216 500.272C862.49 501.363 862.216 502.318 861.393 503.136C860.57 504.227 859.884 505.045 859.335 505.591H848.638C847.267 505.591 845.621 505.454 843.701 505.182C842.055 505.182 840.546 505.182 839.175 505.182C838.078 505.727 836.569 506 834.649 506C832.729 506 830.672 506 828.477 506C826.557 506 824.637 505.864 822.717 505.591C821.071 505.591 820.111 505.591 819.837 505.591C818.466 504.227 817.643 503.272 817.368 502.727C817.368 502.454 817.368 501.636 817.368 500.272V460.993L816.546 436.852L817.368 409.439L816.957 385.708L815.311 366.068C812.02 366.068 808.042 366.204 803.379 366.477C798.716 366.75 795.151 366.614 792.682 366.068C788.019 365.25 784.316 365.113 781.573 365.659C779.104 365.932 775.95 366.068 772.11 366.068V339.882H774.579C775.95 339.882 777.047 339.882 777.87 339.882C778.967 339.609 779.79 339.609 780.339 339.882C781.71 340.973 783.63 341.382 786.099 341.109C788.842 340.564 790.076 340.018 789.802 339.473C792.819 339.2 794.602 339.064 795.151 339.064C795.973 339.064 797.619 339.064 800.088 339.064C802.282 339.064 805.437 339.2 809.551 339.473C813.94 339.473 816.82 339.336 818.191 339.064C818.191 339.064 818.191 338.245 818.191 336.609C818.191 334.972 818.191 333.063 818.191 330.88C818.191 328.698 818.191 326.38 818.191 323.925C818.191 321.47 818.191 319.56 818.191 318.196C818.74 313.014 819.014 308.377 819.014 304.285C819.289 299.921 819.563 295.011 819.837 289.555C820.111 285.737 820.249 282.054 820.249 278.508C820.249 274.962 820.249 271.28 820.249 267.461C820.249 263.642 820.386 259.005 820.66 253.549C821.209 247.821 821.346 242.775 821.071 238.411C821.071 237.047 820.797 236.228 820.249 235.956C819.974 235.41 819.837 234.455 819.837 233.092C819.837 231.728 819.974 230.773 820.249 230.227C820.523 229.409 821.346 229 822.717 229C825.186 229 827.792 229.136 830.535 229.409C833.277 229.682 835.883 229.818 838.352 229.818C842.466 229.818 846.169 229.818 849.461 229.818C853.027 229.818 855.907 229.955 858.101 230.227C862.216 230.773 865.37 231.319 867.564 231.864C867.564 231.864 867.564 232.546 867.564 233.91C867.564 235.001 867.564 236.501 867.564 238.411C867.564 240.047 867.427 241.82 867.153 243.73C867.153 245.639 867.153 247.412 867.153 249.049C866.879 255.868 866.741 261.869 866.741 267.052C866.741 271.962 866.879 277.826 867.153 284.646C867.153 287.646 867.016 290.783 866.741 294.056C866.741 297.329 866.879 300.466 867.153 303.467C867.153 304.285 867.016 306.058 866.741 308.786C866.741 311.514 866.604 314.514 866.33 317.787C866.056 320.788 865.781 323.652 865.507 326.38C865.233 329.107 865.096 330.88 865.096 331.699C865.096 333.063 865.37 334.29 865.919 335.381C866.467 336.472 867.016 337.018 867.564 337.018C868.936 337.018 870.719 337.291 872.913 337.836C875.107 338.109 876.89 338.245 878.262 338.245C879.633 338.245 881.005 338.518 882.376 339.064C884.022 339.336 886.216 339.473 888.959 339.473C891.428 339.473 893.897 339.609 896.365 339.882C899.108 339.882 901.988 339.882 905.005 339.882C905.554 339.882 906.103 340.018 906.651 340.291C907.2 340.291 907.748 340.291 908.297 340.291H909.943C911.314 344.383 912 349.02 912 354.202C912 359.385 911.314 363.34 909.943 366.068H907.474C901.988 366.614 896.64 367.159 891.428 367.705C886.216 367.977 880.868 368.114 875.382 368.114C874.01 368.114 872.364 368.25 870.444 368.523C868.524 368.523 866.879 368.523 865.507 368.523C865.507 369.068 865.37 369.75 865.096 370.569C865.096 371.114 865.096 371.66 865.096 372.205V377.524C865.096 379.979 865.096 382.298 865.096 384.48C865.37 386.389 865.37 388.435 865.096 390.617L865.919 412.303L864.273 430.715C864.273 432.079 864.136 434.534 863.861 438.08C863.861 441.353 863.724 445.035 863.45 449.127C863.45 452.946 863.313 456.628 863.038 460.174C862.764 463.448 862.627 465.766 862.627 467.13Z" fill="#4642FF"/>
<path d="M158.285 448.344C158.855 444.901 158.855 441.459 158.285 438.017C157.714 434.575 157.999 430.846 159.141 426.83C159.712 425.683 159.997 423.675 159.997 420.806C160.568 417.938 160.568 415.643 159.997 413.922L157.428 387.245C156.857 382.655 156.857 378.066 157.428 373.476C157.999 368.313 158.285 363.15 158.285 357.986C157.714 355.692 157.428 353.684 157.428 351.963C157.999 349.668 158.285 347.373 158.285 345.078C157.714 338.768 157.999 332.17 159.141 325.286C160.853 318.401 161.139 311.804 159.997 305.493C159.997 304.919 159.997 303.485 159.997 301.19C159.997 298.896 159.997 296.601 159.997 294.306C159.997 291.438 159.997 288.856 159.997 286.561C160.568 284.266 160.853 282.832 160.853 282.258C161.424 271.358 161.424 259.884 160.853 247.837C160.853 234.642 160.853 222.881 160.853 212.554C160.853 201.654 161.424 192.475 162.566 185.017C163.137 182.149 163.422 178.706 163.422 174.69C163.422 170.101 163.422 165.511 163.422 160.922C162.852 154.611 162.281 147.727 161.71 140.269C161.71 132.811 161.71 125.353 161.71 117.895C161.71 104.7 161.424 93.2256 160.853 83.4728C160.853 73.1462 160.568 61.3855 159.997 48.1905C159.997 43.6009 159.712 39.2982 159.141 35.2823C158.57 30.6927 158.57 26.1032 159.141 21.5136C159.141 20.3662 159.141 17.4977 159.141 12.9082C159.141 8.31857 159.426 5.45009 159.997 4.30272C159.997 3.72899 160.283 3.15529 160.853 2.5816C162.566 0.860533 163.993 0 165.135 0H226.791C234.783 0 242.776 0 250.768 0C259.331 0 267.038 0.286844 273.889 0.860533C280.169 1.43422 286.734 2.86846 293.585 5.16325C301.006 7.45804 307 9.46597 311.568 11.187C326.411 16.3503 336.687 20.3662 342.395 23.2347C348.675 26.1031 354.67 29.8322 360.378 34.4217C365.516 38.4376 370.94 42.1667 376.649 45.6088C382.358 49.051 388.066 53.0669 393.775 57.6564C399.484 61.6723 404.908 66.8356 410.046 73.1462C415.754 78.8832 420.892 86.3412 425.459 95.5204C428.885 102.405 432.881 109.576 437.448 117.034C442.586 124.492 444.87 132.237 444.299 140.269C447.153 148.874 448.58 156.332 448.58 162.643C449.151 168.953 450.864 174.69 453.718 179.854C456.573 192.475 458 205.67 458 219.439C458 233.207 456.573 245.829 453.718 257.303C454.289 265.334 453.433 273.366 451.149 281.398C449.437 289.43 448.295 297.461 447.724 305.493C447.153 312.378 446.297 317.828 445.155 321.844C444.584 325.859 443.442 329.302 441.73 332.17C440.588 335.039 439.161 337.907 437.448 340.775C436.306 343.644 434.879 347.373 433.166 351.963C432.596 353.684 431.168 356.552 428.885 360.568C426.601 364.01 424.032 367.739 421.178 371.755C418.894 375.771 416.325 379.787 413.471 383.803C411.187 387.245 409.76 389.827 409.189 391.548C405.764 401.3 401.197 408.472 395.488 413.061C390.35 417.077 383.499 423.675 374.936 432.854C373.223 434.575 370.369 437.443 366.373 441.459C362.947 444.901 358.951 448.63 354.384 452.646C350.388 456.662 346.392 460.391 342.395 463.833C338.399 466.702 335.259 468.997 332.976 470.718C330.692 471.865 326.696 474.16 320.987 477.602C315.849 480.471 310.14 483.626 303.861 487.068C297.581 490.51 291.587 493.666 285.878 496.534C280.169 499.403 276.458 500.837 274.745 500.837C269.037 501.41 261.615 501.984 252.481 502.558C243.347 503.132 233.927 503.705 224.222 504.279C214.517 504.853 205.097 505.139 195.963 505.139C186.829 505.713 179.407 506 173.698 506H164.279C162.566 504.853 161.424 503.705 160.853 502.558C160.283 501.41 159.712 500.263 159.141 499.116C158.57 497.968 158.285 497.108 158.285 496.534V448.344ZM222.509 332.17C221.938 345.939 221.653 362.002 221.653 380.361C221.653 398.719 221.938 414.782 222.509 428.551C239.065 427.404 252.766 424.822 263.613 420.806C274.46 416.217 285.878 409.332 297.866 400.153C305.859 394.416 311.282 388.392 314.137 382.082C317.562 375.197 320.702 368.313 323.556 361.429C326.411 356.265 328.694 350.241 330.407 343.357C332.69 336.473 334.974 329.875 337.257 323.565C338.399 320.122 339.826 315.246 341.539 308.935C343.823 302.625 344.964 297.175 344.964 292.585C344.964 289.717 345.535 284.266 346.677 276.235C348.39 267.629 348.961 261.892 348.39 259.024V243.534C348.39 233.207 348.675 222.02 349.246 209.973C350.388 197.925 350.102 183.009 348.39 165.224V160.061C347.248 145.145 343.252 132.811 336.401 123.058C329.55 113.305 321.273 102.692 311.568 91.2177C307 85.4807 301.577 81.178 295.297 78.3095C289.588 75.441 279.312 71.4251 264.469 66.2619C259.902 64.5408 253.623 63.3934 245.63 62.8197C237.638 61.6723 230.502 60.8118 224.222 60.2381C223.08 62.5329 222.509 63.9671 222.509 64.5408V73.1462C221.367 79.4569 220.797 87.4886 220.797 97.2415C221.367 106.421 221.653 115.026 221.653 123.058C221.653 132.811 221.938 143.998 222.509 156.619C223.08 169.24 222.795 182.149 221.653 195.344C221.653 198.212 221.367 201.367 220.797 204.809C220.797 208.252 220.797 211.407 220.797 214.275C221.367 221.734 221.367 229.192 220.797 236.65C220.226 244.108 220.797 251.853 222.509 259.884C221.367 271.932 221.082 283.98 221.653 296.027C222.795 308.075 223.08 320.122 222.509 332.17Z" fill="white"/>
<path d="M30.5068 299.916C32.1622 299.441 34.1723 298.729 36.5372 297.78C38.902 296.831 41.2669 296.356 43.6318 296.356C46.7061 296.356 49.5439 296.356 52.1453 296.356C54.7466 296.119 57.5845 296 60.6588 296C63.0236 296 65.2703 296.119 67.3986 296.356C69.7635 296.356 71.8919 296.712 73.7838 297.424C74.2568 297.424 74.848 297.543 75.5574 297.78C76.2669 298.017 77.2128 298.729 78.3953 299.916C80.7601 300.628 83.0068 301.815 85.1351 303.476C87.2635 305.138 89.1554 307.155 90.8108 309.528C92.7027 311.902 94.3581 314.394 95.777 317.005C97.4324 319.378 98.8513 321.752 100.034 324.125C101.216 326.024 101.926 328.516 102.162 331.601C102.635 334.687 103.226 337.179 103.936 339.078C103.936 342.4 104.054 345.604 104.291 348.69C104.764 351.775 105 354.979 105 358.302C105 363.761 104.882 368.983 104.645 373.967C104.409 378.951 104.291 384.172 104.291 389.631L103.581 401.38C103.581 402.329 103.108 403.991 102.162 406.364C101.216 408.737 100.625 410.517 100.389 411.704C99.6791 414.078 98.7331 416.926 97.5507 420.248C96.3682 423.334 95.5405 425.114 95.0676 425.589C93.8851 426.775 93.0574 427.843 92.5844 428.793C92.1115 429.742 91.6385 430.691 91.1655 431.641C90.9291 432.59 90.4561 433.421 89.7466 434.133C89.2736 434.845 88.3277 435.557 86.9088 436.269C85.7263 436.744 84.3074 437.456 82.652 438.405C80.9966 439.592 79.4595 440.66 78.0405 441.609C76.8581 442.084 76.2669 442.44 76.2669 442.677C76.2669 443.152 75.4392 443.627 73.7838 444.101L67.3986 445.525C64.5608 446 62.1959 446.119 60.3041 445.881C58.6486 445.644 56.7568 445.525 54.6284 445.525C48.0068 445.525 41.3851 444.22 34.7635 441.609C32.6351 441.609 30.5068 441.134 28.3784 440.185C26.4865 439.236 25.0676 438.168 24.1216 436.981C22.9392 436.032 21.7568 434.964 20.5743 433.777C19.3919 432.828 18.2095 431.759 17.027 430.573C15.1351 428.437 13.598 426.301 12.4155 424.165C11.2331 422.028 10.0507 419.774 8.86824 417.4C7.68581 414.79 6.38514 412.179 4.96622 409.568C3.5473 406.72 2.60135 403.634 2.12838 400.312C1.65541 394.853 1.18243 389.869 0.70946 385.359C0.472973 380.85 0.35473 376.34 0.35473 371.831V357.234C0.118243 356.76 0 355.81 0 354.386C0 352.962 0.118243 352.013 0.35473 351.538C0.35473 350.351 0.35473 349.165 0.35473 347.978C0.591216 346.554 0.827703 345.248 1.06419 344.062C1.30068 342.163 1.41892 340.264 1.41892 338.366C1.41892 336.467 2.01014 334.568 3.19257 332.669C2.95608 333.144 3.07432 332.788 3.5473 331.601C4.25676 330.177 4.96622 328.753 5.67568 327.329C6.38514 325.668 6.97635 324.244 7.44932 323.057C7.9223 321.87 8.15878 321.396 8.15878 321.633L10.6419 317.005C11.3514 316.293 12.0608 315.462 12.7703 314.513C13.4797 313.563 14.4257 312.495 15.6081 311.309C17.027 310.122 18.8007 308.579 20.9291 306.68C23.2939 304.782 26.4865 302.527 30.5068 299.916ZM56.402 359.014C55.4561 359.014 54.5101 359.489 53.5642 360.438C52.8547 361.388 52.3818 362.218 52.1453 362.93C50.4899 366.491 49.6622 369.457 49.6622 371.831C49.6622 378.239 51.9088 382.511 56.402 384.647C57.5845 384.647 58.5304 384.291 59.2399 383.579C60.1858 382.63 60.6588 381.68 60.6588 380.731C60.6588 378.358 60.8953 375.628 61.3682 372.543C62.0777 369.457 61.8412 366.253 60.6588 362.93C59.4764 361.744 58.7669 360.794 58.5304 360.082C58.2939 359.37 57.5845 359.014 56.402 359.014Z" fill="white"/>
<path d="M30.5068 64.9161C32.1622 64.4415 34.1723 63.7294 36.5372 62.7801C38.902 61.8307 41.2669 61.356 43.6318 61.356C46.7061 61.356 49.5439 61.356 52.1453 61.356C54.7466 61.1187 57.5845 61 60.6588 61C63.0236 61 65.2703 61.1187 67.3986 61.356C69.7635 61.356 71.8919 61.712 73.7838 62.4241C74.2568 62.4241 74.848 62.5427 75.5574 62.7801C76.2669 63.0174 77.2128 63.7294 78.3953 64.9161C80.7601 65.6282 83.0068 66.8149 85.1351 68.4763C87.2635 70.1377 89.1554 72.1551 90.8108 74.5285C92.7027 76.9019 94.3581 79.394 95.777 82.0047C97.4324 84.3782 98.8513 86.7516 100.034 89.125C101.216 91.0237 101.926 93.5158 102.162 96.6013C102.635 99.6867 103.226 102.179 103.936 104.078C103.936 107.4 104.054 110.604 104.291 113.69C104.764 116.775 105 119.979 105 123.302C105 128.761 104.882 133.983 104.645 138.967C104.409 143.951 104.291 149.172 104.291 154.631L103.581 166.38C103.581 167.329 103.108 168.991 102.162 171.364C101.216 173.737 100.625 175.517 100.389 176.704C99.6791 179.078 98.7331 181.926 97.5507 185.248C96.3682 188.334 95.5405 190.114 95.0676 190.589C93.8851 191.775 93.0574 192.843 92.5844 193.793C92.1115 194.742 91.6385 195.691 91.1655 196.641C90.9291 197.59 90.4561 198.421 89.7466 199.133C89.2736 199.845 88.3277 200.557 86.9088 201.269C85.7263 201.744 84.3074 202.456 82.652 203.405C80.9966 204.592 79.4595 205.66 78.0405 206.609C76.8581 207.084 76.2669 207.44 76.2669 207.677C76.2669 208.152 75.4392 208.627 73.7838 209.101L67.3986 210.525C64.5608 211 62.1959 211.119 60.3041 210.881C58.6486 210.644 56.7568 210.525 54.6284 210.525C48.0068 210.525 41.3851 209.22 34.7635 206.609C32.6351 206.609 30.5068 206.134 28.3784 205.185C26.4865 204.236 25.0676 203.168 24.1216 201.981C22.9392 201.032 21.7568 199.964 20.5743 198.777C19.3919 197.828 18.2095 196.76 17.027 195.573C15.1351 193.437 13.598 191.301 12.4155 189.165C11.2331 187.028 10.0507 184.774 8.86824 182.4C7.68581 179.79 6.38514 177.179 4.96622 174.568C3.5473 171.72 2.60135 168.634 2.12838 165.312C1.65541 159.853 1.18243 154.869 0.70946 150.359C0.472973 145.85 0.35473 141.34 0.35473 136.831V122.234C0.118243 121.759 0 120.81 0 119.386C0 117.962 0.118243 117.013 0.35473 116.538C0.35473 115.351 0.35473 114.165 0.35473 112.978C0.591216 111.554 0.827703 110.248 1.06419 109.062C1.30068 107.163 1.41892 105.264 1.41892 103.366C1.41892 101.467 2.01014 99.568 3.19257 97.6693C2.95608 98.144 3.07432 97.788 3.5473 96.6013C4.25676 95.1772 4.96622 93.7532 5.67568 92.3291C6.38514 90.6677 6.97635 89.2437 7.44932 88.057C7.9223 86.8703 8.15878 86.3956 8.15878 86.6329L10.6419 82.0047C11.3514 81.2927 12.0608 80.462 12.7703 79.5127C13.4797 78.5633 14.4257 77.4953 15.6081 76.3085C17.027 75.1218 18.8007 73.5791 20.9291 71.6804C23.2939 69.7816 26.4865 67.5269 30.5068 64.9161ZM56.402 124.014C55.4561 124.014 54.5101 124.489 53.5642 125.438C52.8547 126.388 52.3818 127.218 52.1453 127.93C50.4899 131.491 49.6622 134.457 49.6622 136.831C49.6622 143.239 51.9088 147.511 56.402 149.647C57.5845 149.647 58.5304 149.291 59.2399 148.579C60.1858 147.63 60.6588 146.68 60.6588 145.731C60.6588 143.358 60.8953 140.628 61.3682 137.543C62.0777 134.457 61.8412 131.253 60.6588 127.93C59.4764 126.744 58.7669 125.794 58.5304 125.082C58.2939 124.37 57.5845 124.014 56.402 124.014Z" fill="white"/>
</svg>
