<svg width="117" height="161" viewBox="0 0 117 161" fill="none" xmlns="http://www.w3.org/2000/svg">
<path d="M0 161V0H60.306C72.6604 0 83.0255 2.30599 91.4013 6.91797C99.8295 11.5299 106.19 17.8714 110.483 25.9424C114.828 33.9609 117 43.0801 117 53.2998C117 63.6244 114.828 72.7959 110.483 80.8145C106.138 88.833 99.7248 95.1483 91.2443 99.7603C82.7638 104.32 72.3201 106.6 59.9134 106.6H19.945V82.6226H55.9873C63.2114 82.6226 69.1268 81.3648 73.7336 78.8491C78.3403 76.3335 81.743 72.8745 83.9416 68.4722C86.1926 64.0698 87.3181 59.0124 87.3181 53.2998C87.3181 47.5872 86.1926 42.556 83.9416 38.2061C81.743 33.8561 78.3141 30.4758 73.655 28.0649C69.0483 25.6017 63.1067 24.3701 55.8302 24.3701H29.1322V161H0Z" fill="#111111"/>
</svg>
