<svg width="113" height="151" viewBox="0 0 113 151" fill="none" xmlns="http://www.w3.org/2000/svg">
<path d="M59.1077 151C52.5629 151 46.7339 150.353 41.6208 149.059C36.5077 147.765 32.6217 146.607 29.9629 145.585C27.3722 144.564 25.8042 143.951 25.2588 143.746C24.168 143.338 22.8727 142.759 21.3729 142.009C21.1683 141.941 20.7252 141.737 20.0434 141.396C19.3617 141.056 18.7481 140.886 18.2027 140.886C17.4528 140.886 16.8051 141.09 16.2597 141.499C15.7825 141.907 15.203 142.486 14.5213 143.235C13.1578 144.802 11.8624 145.892 10.6353 146.505C9.47632 147.118 8.24917 147.424 6.95385 147.424C5.1813 147.424 3.78371 146.982 2.76109 146.096C1.73846 145.143 1.26124 143.951 1.32941 142.52C1.46576 141.022 1.53394 139.489 1.53394 137.923V133.836C1.53394 129.273 1.3635 124.675 1.02262 120.044C0.749925 115.412 0.579487 112.722 0.511312 111.973C0.170437 107.75 0 104.855 0 103.289C0 98.5212 1.97707 96.1373 5.93122 96.1373C9.20362 96.1373 11.2489 97.5677 12.067 100.428C12.8169 103.289 13.7032 106.115 14.7258 108.908C15.7484 111.7 17.1801 114.697 19.0208 117.899C23.1795 125.05 28.9062 130.805 36.2009 135.164C43.4956 139.523 51.4039 141.703 59.9258 141.703C63.8799 141.703 67.5614 141.022 70.9701 139.66C74.3789 138.297 77.1059 136.254 79.1511 133.53C81.2646 130.737 82.3213 127.366 82.3213 123.415C82.3213 117.967 80.8214 113.233 77.8217 109.214C74.822 105.128 71.1747 101.688 66.8796 98.8958C62.6528 96.0352 56.9261 92.7318 49.6995 88.9858L43.257 85.6143C34.5306 80.9829 27.5768 76.9644 22.3955 73.5589C17.2824 70.0853 12.7828 65.59 8.89683 60.0731C5.07903 54.5562 3.17014 47.9835 3.17014 40.3552C3.17014 32.3863 5.35173 25.3369 9.71493 19.207C14.1463 13.0771 20.2821 8.34348 28.1222 5.00609C36.0305 1.6687 45.0296 0 55.1195 0C60.3689 0 64.7662 0.34055 68.3113 1.02165C71.9246 1.70275 75.4356 2.62224 78.8443 3.78011C79.1852 3.91633 80.1397 4.22282 81.7077 4.69959C83.3439 5.10825 84.7756 5.31258 86.0027 5.31258C87.0253 5.31258 87.7753 5.17636 88.2525 4.90392C88.7979 4.63148 89.3433 4.22282 89.8887 3.67794C90.5023 3.06495 91.0136 2.62224 91.4226 2.3498C92.1725 1.87303 93.127 1.63464 94.286 1.63464C96.0585 1.63464 97.6947 2.0433 99.1946 2.86062C100.763 3.60983 101.547 4.49526 101.547 5.51691C101.615 8.99053 101.887 13.2815 102.365 18.3897C102.842 23.498 103.149 26.8013 103.285 28.2997C103.83 32.795 104.103 35.6897 104.103 36.9838C104.103 39.0952 103.49 40.6276 102.262 41.5812C101.103 42.4666 99.5695 42.9093 97.6606 42.9093C95.2063 42.9093 93.502 42.1261 92.5475 40.5595C95.1382 45.7359 94.7632 44.1013 91.4226 35.6556C88.1502 27.21 83.8552 20.6714 78.5376 16.0399C73.2881 11.3403 65.9934 8.99053 56.6534 8.99053C49.6314 8.99053 43.7001 10.4208 38.8597 13.2815C34.0875 16.074 31.7014 20.5352 31.7014 26.6651C31.7014 31.8415 33.4398 36.541 36.9167 40.7639C40.3937 44.9186 44.6205 48.5284 49.5973 51.5934C54.6422 54.6583 61.0507 58.1319 68.8226 62.0142C77.9581 66.5095 85.5255 70.7663 91.5249 74.7848C97.5925 78.7352 102.671 83.537 106.762 89.1901C110.921 94.8433 113 101.416 113 108.908C113 117.354 110.546 124.778 105.637 131.18C100.797 137.514 94.2519 142.418 86.0027 145.892C77.8217 149.297 68.8567 151 59.1077 151Z" fill="#111111"/>
</svg>
