<svg width="618" height="319" viewBox="0 0 618 319" fill="none" xmlns="http://www.w3.org/2000/svg">
<path d="M270.717 4.04821H197.638V141.763H270.717V4.04821Z" fill="#2C2C2C"/>
<path d="M199.859 314.952H270.717V200.954H199.859C198.309 209.543 191.85 217.113 187.746 223.664C181.286 234.055 173.009 241.881 162.915 247.144C152.821 252.407 142.391 255.038 131.624 255.038C114.128 255.038 99.9965 249.236 89.2297 237.631C78.463 226.026 73.0796 210.373 73.0796 190.671V4.04821H0V202.006C0 226.835 4.37396 248.021 13.1219 265.563C21.8699 282.971 33.9827 296.262 49.4599 305.438C65.0718 314.479 83.0388 319 103.361 319C126.644 319 146.226 313.467 162.107 302.402C178.123 291.337 189.63 277.101 196.628 259.694H199.859V314.952Z" fill="#111111"/>
<path d="M415.716 4.04821H345.866V141.763H418.946C418.946 141.763 413.71 91.3404 450.439 70.4391C460.398 64.7716 471.77 61.9378 484.556 61.9378C503.398 61.9378 518.135 67.8077 528.767 79.5476C539.534 91.2874 544.917 107.548 544.917 128.329V314.952H617.997V116.994C618.132 92.1645 613.758 71.0463 604.875 53.639C596.127 36.2316 583.745 22.9399 567.729 13.7639C551.848 4.58799 533.208 0 511.809 0C488.661 0 469.213 5.12775 453.467 15.3832C437.855 25.6387 426.483 39.4702 419.35 56.8775H415.716V4.04821Z" fill="#111111"/>
<path d="M418.946 314.952H345.866V200.954H418.946V314.952Z" fill="#2C2C2C"/>
</svg>
