<svg width="425" height="410" viewBox="0 0 425 410" fill="none" xmlns="http://www.w3.org/2000/svg">
<path d="M424.311 409.869H254.182V389.361C258.804 388.976 265.447 388.398 274.113 387.628C282.971 386.858 289.036 385.703 292.31 384.162C298.087 381.851 302.323 378.385 305.019 373.764C307.715 368.95 309.063 362.788 309.063 355.278V209.412H116.404V352.1C116.404 358.84 117.463 364.521 119.581 369.142C121.892 373.764 126.321 377.808 132.868 381.274C136.142 383.007 141.919 384.74 150.199 386.473C158.671 388.206 165.315 389.169 170.129 389.361V409.869H0V389.361C4.6215 388.976 11.2649 388.398 19.9302 387.628C28.7881 386.858 34.8538 385.703 38.1274 384.162C43.9042 381.851 48.1406 378.385 50.8365 373.764C53.5324 368.95 54.8803 362.788 54.8803 355.278V59.5018C54.8803 53.3398 53.6286 47.7555 51.1253 42.7489C48.622 37.5497 44.2894 33.5059 38.1274 30.6174C32.9282 28.1141 26.5736 25.8997 19.0637 23.974C11.7463 22.0484 5.39175 20.893 0 20.5079V0H170.129V20.5079C164.737 20.7005 158.094 21.567 150.199 23.1075C142.496 24.648 136.719 26.0922 132.868 27.4402C126.321 29.7509 121.892 33.6021 119.581 38.9939C117.463 44.3856 116.404 50.2588 116.404 56.6134V183.705H309.063V59.5018C309.063 53.3398 307.811 47.7555 305.308 42.7489C302.804 37.5497 298.472 33.5059 292.31 30.6174C287.111 28.1141 280.756 25.8997 273.246 23.974C265.929 22.0484 259.574 20.893 254.182 20.5079V0H424.311V20.5079C418.92 20.7005 412.276 21.567 404.381 23.1075C396.679 24.648 390.902 26.0922 387.051 27.4402C380.503 29.7509 376.075 33.6021 373.764 38.9939C371.646 44.3856 370.586 50.2588 370.586 56.6134V352.1C370.586 358.84 371.646 364.521 373.764 369.142C376.075 373.764 380.503 377.808 387.051 381.274C390.324 383.007 396.101 384.74 404.381 386.473C412.854 388.206 419.497 389.169 424.311 389.361V409.869Z" fill="#111111"/>
</svg>
