<svg width="1360" height="151" viewBox="0 0 1360 151" fill="none" xmlns="http://www.w3.org/2000/svg">
<path d="M76.9228 2C90.4612 2 102.632 4.06461 113.436 8.19383C124.239 12.323 132.786 18.448 139.076 26.5688C145.504 34.552 148.717 44.3244 148.717 55.8862H105.436C105.436 49.9677 102.837 45.2191 97.6407 41.6405C92.4441 37.9242 86.1535 36.066 78.769 36.066C68.1023 36.066 60.034 38.9565 54.5639 44.7374C49.0938 50.3806 46.3588 58.4326 46.3588 68.8933V82.1067C46.3588 92.5674 49.0938 100.688 54.5639 106.469C60.034 112.112 68.1023 114.934 78.769 114.934C86.1535 114.934 92.4441 113.213 97.6407 109.772C102.837 106.194 105.436 101.652 105.436 96.1461H73.4356V67.2416H148.717V146.522H125.333L120.82 132.483C107.965 143.494 91.145 149 70.3587 149C46.9742 149 29.4016 142.875 17.641 130.625C5.88032 118.237 0 99.8624 0 75.5C0 51.4129 6.63246 33.1756 19.8974 20.7879C33.299 8.26264 52.3075 2 76.9228 2Z" fill="#111111"/>
<path d="M317.334 89.3329C317.334 108.74 311.248 123.537 299.077 133.722C286.907 143.907 269.607 149 247.18 149C224.753 149 207.385 143.907 195.078 133.722C182.907 123.537 176.821 108.74 176.821 89.3329V4.47753H222.155V88.7135C222.155 96.6966 224.274 103.097 228.514 107.914C232.753 112.594 238.907 114.934 246.975 114.934C255.043 114.934 261.197 112.525 265.437 107.708C269.813 102.89 272.001 96.559 272.001 88.7135V4.47753H317.334V89.3329Z" fill="#111111"/>
<path d="M349.746 146.522V4.47753H395.079V146.522H349.746Z" fill="#111111"/>
<path d="M427.422 4.47753H472.755V110.185H545.165V146.522H427.422V4.47753Z" fill="#111111"/>
<path d="M659.419 146.522V92.6362H609.573V146.522H564.24V4.47753H609.573V56.2992H659.419V4.47753H704.752V146.522H659.419Z" fill="#111111"/>
<path d="M735.113 4.47753H857.164V38.5435H780.446V58.1573H846.087V90.7781H780.446V112.456H858.6V146.522H735.113V4.47753Z" fill="#111111"/>
<path d="M1017.1 48.0407C1017.1 56.7121 1014.77 64.5576 1010.12 71.5773C1005.47 78.5969 998.704 83.7584 989.815 87.0618L1021.2 146.522H970.328L945.303 94.7008H928.482V146.522H883.149V4.47753H969.508C979.627 4.47753 988.243 6.47332 995.354 10.4649C1002.6 14.3188 1008 19.618 1011.56 26.3624C1015.25 32.9691 1017.1 40.1952 1017.1 48.0407ZM970.944 49.8989C970.944 46.1826 969.713 43.0857 967.251 40.6082C964.79 38.1306 961.781 36.8919 958.226 36.8919H928.482V63.1124H958.226C961.781 63.1124 964.79 61.8736 967.251 59.3961C969.713 56.7809 970.944 53.6152 970.944 49.8989Z" fill="#111111"/>
<path d="M1164.03 146.522V95.3202C1164.03 88.9888 1164.24 82.5197 1164.65 75.9129C1165.2 69.1685 1165.74 63.5253 1166.29 58.9832C1166.84 54.441 1167.18 51.5506 1167.32 50.3118H1166.5L1140.44 146.522H1104.96L1078.7 50.5183H1077.88C1078.02 51.757 1078.36 54.6475 1078.91 59.1896C1079.59 63.5941 1080.21 69.1685 1080.75 75.9129C1081.3 82.5197 1081.57 88.9888 1081.57 95.3202V146.522H1039.93V4.47753H1103.93L1125.27 86.4424H1126.09L1147.21 4.47753H1208.96V146.522H1164.03Z" fill="#111111"/>
<path d="M1236.51 4.47753H1358.56V38.5435H1281.85V58.1573H1347.49V90.7781H1281.85V112.456H1360V146.522H1236.51V4.47753Z" fill="#111111"/>
</svg>
